<?xml version="1.0" encoding="UTF-8" standalone="no"?>
<!-- Created with Inkscape (http://www.inkscape.org/) -->

<svg
   xmlns:dc="http://purl.org/dc/elements/1.1/"
   xmlns:cc="http://creativecommons.org/ns#"
   xmlns:rdf="http://www.w3.org/1999/02/22-rdf-syntax-ns#"
   xmlns:svg="http://www.w3.org/2000/svg"
   xmlns="http://www.w3.org/2000/svg"
   xmlns:sodipodi="http://sodipodi.sourceforge.net/DTD/sodipodi-0.dtd"
   xmlns:inkscape="http://www.inkscape.org/namespaces/inkscape"
   width="300"
   height="150"
   id="svg4083"
   version="1.1"
   inkscape:version="0.48.5 r10040"
   sodipodi:docname="anyfs_logo_terminalDosis_fat.svg"
   inkscape:export-filename="/home/egal/GIT/anyfs/lib/assets/facetAndReceptacle/anyfs_logo_terminalDosis_fat.png"
   inkscape:export-xdpi="90"
   inkscape:export-ydpi="90">
  <defs
     id="defs4085" />
  <sodipodi:namedview
     id="base"
     pagecolor="#ffffff"
     bordercolor="#666666"
     borderopacity="1.0"
     inkscape:pageopacity="0.0"
     inkscape:pageshadow="2"
     inkscape:zoom="0.9899495"
     inkscape:cx="163.09657"
     inkscape:cy="63.67718"
     inkscape:document-units="px"
     inkscape:current-layer="g4212"
     showgrid="false"
     inkscape:window-width="1366"
     inkscape:window-height="720"
     inkscape:window-x="0"
     inkscape:window-y="24"
     inkscape:window-maximized="1"
     width="400px" />
  <metadata
     id="metadata4088">
    <rdf:RDF>
      <cc:Work
         rdf:about="">
        <dc:format>image/svg+xml</dc:format>
        <dc:type
           rdf:resource="http://purl.org/dc/dcmitype/StillImage" />
        <dc:title></dc:title>
      </cc:Work>
    </rdf:RDF>
  </metadata>
  <g
     inkscape:label="Layer 1"
     inkscape:groupmode="layer"
     id="layer1"
     transform="translate(0,-902.36218)">
    <g
       id="g4212"
       transform="translate(-171.88471,379.73747)">
      <path
         style="color:#000000;fill:none;stroke:#527761;stroke-width:6.15873194;stroke-linecap:round;stroke-linejoin:miter;stroke-miterlimit:4;stroke-opacity:1;stroke-dasharray:none;stroke-dashoffset:0;marker:none;visibility:visible;display:inline;overflow:visible;enable-background:accumulate"
         d="m 331.11092,660.31082 c -33.25196,0 -60.20802,-26.95605 -60.20802,-60.2081 0,-33.25194 26.95606,-60.20805 60.20802,-60.20805"
         id="path3801-0-26"
         inkscape:connector-curvature="0"
         sodipodi:nodetypes="csc" />
      <path
         style="fill:none;stroke:#527761;stroke-width:6.92857456;stroke-linecap:round;stroke-linejoin:miter;stroke-miterlimit:4;stroke-opacity:1;stroke-dasharray:none"
         d="m 184.7422,600.10275 41.83624,0 41.83623,0"
         id="path3803-9-2"
         inkscape:connector-curvature="0"
         sodipodi:nodetypes="ccc" />
      <path
         sodipodi:type="arc"
         style="color:#000000;fill:#93ac93;fill-opacity:1;fill-rule:nonzero;stroke:none;stroke-width:1.0123657;marker:none;visibility:visible;display:inline;overflow:visible;enable-background:accumulate"
         id="path3801-3"
         sodipodi:cx="97.100914"
         sodipodi:cy="215.82961"
         sodipodi:rx="9.4701805"
         sodipodi:ry="9.4701805"
         d="m 106.57109,215.82961 a 9.4701805,9.4701805 0 1 1 -18.940357,0 9.4701805,9.4701805 0 1 1 18.940357,0 z"
         transform="matrix(-5.1364841,0,0,-5.1364841,830.17904,1708.7081)" />
      <path
         style="fill:#6f916f;stroke:#93ac93;stroke-width:6.92857456;stroke-linecap:round;stroke-linejoin:miter;stroke-miterlimit:4;stroke-opacity:1;stroke-dasharray:none"
         d="m 373.83042,600.10275 83.67247,0"
         id="path3803-9-4-6"
         inkscape:connector-curvature="0" />
      <g
         id="flowRoot2985-2-0"
         style="font-size:40px;font-style:normal;font-variant:normal;font-weight:normal;font-stretch:normal;line-height:125%;letter-spacing:0px;word-spacing:0px;fill:#ffffff;fill-opacity:1;stroke:#ffffff;stroke-width:1.0805738;stroke-miterlimit:4;stroke-opacity:1;stroke-dasharray:none;font-family:Alfa Slab One;-inkscape-font-specification:Alfa Slab One"
         transform="matrix(0.83289081,0,0,0.83289081,228.57703,464.22845)">
        <path
           id="path4073"
           style="fill:#ffffff;stroke:#ffffff;stroke-width:1.0805738;stroke-miterlimit:4;stroke-opacity:1;stroke-dasharray:none;font-family:Terminal Dosis;-inkscape-font-specification:Terminal Dosis"
           d="m 75.12125,174.72375 c -10e-7,-0.13333 0.01333,-0.22667 0.04,-0.28 l 8.36,-27.16 c 0.186657,-0.6133 0.706657,-0.91997 1.56,-0.92 0.853322,3e-5 1.386654,0.3067 1.6,0.92 l 8.32,27.16 c -2.1e-5,0.0267 -2.1e-5,0.0667 0,0.12 0.02665,0.0533 0.03998,0.0933 0.04,0.12 -2.1e-5,0.32 -0.173354,0.6 -0.52,0.84 -0.346687,0.21333 -0.706686,0.32 -1.08,0.32 -0.506685,0 -0.840018,-0.22667 -1,-0.68 l -1.84,-6.16 -11.08,0 -1.84,6.16 c -0.10667,0.45333 -0.453336,0.68 -1.04,0.68 -0.373335,0 -0.720002,-0.10667 -1.04,-0.32 -0.320001,-0.21333 -0.480001,-0.48 -0.48,-0.8 m 5.08,-8 9.72,0 -4.84,-16.12 -4.88,16.12"
           inkscape:connector-curvature="0" />
        <path
           id="path4075"
           style="fill:#ffffff;stroke:#ffffff;stroke-width:1.0805738;stroke-miterlimit:4;stroke-opacity:1;stroke-dasharray:none;font-family:Terminal Dosis;-inkscape-font-specification:Terminal Dosis"
           d="m 98.36375,174.80375 0,-16.92 c -3e-6,-0.29332 0.119997,-0.51998 0.36,-0.68 0.239997,-0.18665 0.546663,-0.27998 0.92,-0.28 0.319996,2e-5 0.6,0.0933 0.84,0.28 0.24,0.18669 0.36,0.41335 0.36,0.68 l 0,1.84 c 0.45333,-0.85332 1.14666,-1.57332 2.08,-2.16 0.93333,-0.58665 2.02666,-0.87998 3.28,-0.88 1.91999,2e-5 3.58665,0.73335 5,2.2 1.41332,1.46668 2.11998,3.22668 2.12,5.28 l 0,10.64 c -2e-5,0.32 -0.13335,0.57333 -0.4,0.76 -0.26668,0.18667 -0.57335,0.28 -0.92,0.28 -0.32002,0 -0.61335,-0.0933 -0.88,-0.28 -0.26668,-0.18667 -0.40001,-0.44 -0.4,-0.76 l 0,-10.64 c -10e-6,-1.30665 -0.49335,-2.47999 -1.48,-3.52 -0.98668,-1.03998 -2.16001,-1.55998 -3.52,-1.56 -1.25334,2e-5 -2.36001,0.46668 -3.32,1.4 -0.96001,0.93335 -1.44001,2.16001 -1.44,3.68 l 0,10.64 c -1e-5,0.26667 -0.13334,0.50667 -0.4,0.72 -0.26667,0.21333 -0.573337,0.32 -0.92,0.32 -0.373337,0 -0.680003,-0.10667 -0.92,-0.32 -0.240003,-0.21333 -0.360003,-0.45333 -0.36,-0.72"
           inkscape:connector-curvature="0" />
        <path
           id="path4077"
           style="fill:#ffffff;stroke:#ffffff;stroke-width:1.0805738;stroke-miterlimit:4;stroke-opacity:1;stroke-dasharray:none;font-family:Terminal Dosis;-inkscape-font-specification:Terminal Dosis"
           d="m 115.85688,157.92375 c -1e-5,-0.31998 0.17333,-0.59998 0.51999,-0.84 0.34667,-0.26665 0.70667,-0.39998 1.08,-0.4 0.50667,2e-5 0.81334,0.18669 0.92,0.56 l 5.48001,14.72 5.15999,-14.72 c 0.15999,-0.37331 0.45332,-0.55998 0.88,-0.56 0.34666,2e-5 0.69332,0.13335 1.04,0.4 0.37332,0.24002 0.55999,0.53335 0.56,0.88 -1e-5,0.16002 -0.0267,0.26668 -0.08,0.32 l -6.19999,16.8 -0.72,1.96 c -0.13335,0.34667 -0.40001,0.97333 -0.8,1.88 -0.37335,0.90666 -0.69335,1.56 -0.96001,1.96 l -1.03999,1.6 c -0.45334,0.66666 -0.89334,1.14666 -1.32001,1.44 -0.4,0.29332 -0.89333,0.55999 -1.48,0.8 -0.58666,0.26666 -1.18666,0.39999 -1.8,0.4 -0.8,-1e-5 -1.2,-0.38668 -1.2,-1.16 0,-0.80001 0.26667,-1.20001 0.80001,-1.2 1.22666,-10e-6 2.35999,-0.74667 3.39999,-2.24 1.06667,-1.46667 1.86667,-3.29333 2.40001,-5.48 l -6.52,-16.76 c -0.08,-0.13332 -0.12001,-0.25332 -0.12,-0.36"
           inkscape:connector-curvature="0" />
        <path
           id="path4079"
           style="fill:#ffffff;stroke:#ffffff;stroke-width:1.0805738;stroke-miterlimit:4;stroke-opacity:1;stroke-dasharray:none;font-family:Terminal Dosis;-inkscape-font-specification:Terminal Dosis"
           d="m 135.13375,174.84375 0,-27.24 c 0,-0.31997 0.12,-0.55997 0.36,-0.72 0.24,-0.18664 0.52,-0.27997 0.84,-0.28 l 14.16,0 c 0.31998,3e-5 0.55998,0.12003 0.72,0.36 0.18665,0.21336 0.27998,0.48003 0.28,0.8 -2e-5,0.34669 -0.0934,0.65336 -0.28,0.92 -0.16002,0.24003 -0.40002,0.36003 -0.72,0.36 l -12.72,0 0,11 6.32,0 c 0.29332,2e-5 0.51999,0.12002 0.68,0.36 0.18665,0.21335 0.27999,0.49335 0.28,0.84 -1e-5,0.72001 -0.32001,1.08001 -0.96,1.08 l -6.32,0 0,12.52 c -1e-5,0.32 -0.13334,0.57333 -0.4,0.76 -0.26667,0.16 -0.57334,0.24 -0.92,0.24 -0.88,0 -1.32,-0.33333 -1.32,-1"
           inkscape:connector-curvature="0" />
        <path
           id="path4081"
           style="fill:#ffffff;stroke:#ffffff;stroke-width:1.0805738;stroke-miterlimit:4;stroke-opacity:1;stroke-dasharray:none;font-family:Terminal Dosis;-inkscape-font-specification:Terminal Dosis"
           d="m 152.98687,171.80375 c 0,-0.32 0.12,-0.64 0.36,-0.96 0.26667,-0.34666 0.54667,-0.51999 0.84,-0.52 0.21334,1e-5 0.48,0.17334 0.8,0.52 l 1.12,1.16 c 0.4,0.42667 1.02667,0.81334 1.88,1.16 0.88,0.32 1.89333,0.48 3.04,0.48 1.89333,0 3.35999,-0.46666 4.4,-1.4 1.03999,-0.96 1.55999,-2.33333 1.56,-4.12 -1e-5,-1.19999 -0.25334,-2.21332 -0.76,-3.04 -0.48001,-0.85332 -1.10668,-1.50665 -1.88,-1.96 -0.74667,-0.47999 -1.60001,-0.90665 -2.56,-1.28 l -2.87999,-1.12 c -0.96001,-0.37332 -1.82668,-0.81332 -2.60001,-1.32 -0.74667,-0.53332 -1.37333,-1.26665 -1.88,-2.2 -0.48,-0.95998 -0.72,-2.09331 -0.72,-3.4 0,-1.38664 0.25334,-2.57331 0.76,-3.56 0.53333,-1.01331 1.24,-1.77331 2.12,-2.28 0.88,-0.50664 1.77333,-0.86664 2.68,-1.08 0.93333,-0.23997 1.90666,-0.35997 2.92,-0.36 1.62666,3e-5 3.14666,0.24003 4.56,0.72 1.43999,0.45336 2.15999,1.02669 2.16001,1.72 -2e-5,0.32003 -0.12002,0.65336 -0.36001,1 -0.21335,0.32003 -0.48001,0.48003 -0.8,0.48 -0.16001,3e-5 -0.46668,-0.11997 -0.92,-0.36 -0.45334,-0.26664 -1.09334,-0.51997 -1.91999,-0.76 -0.80002,-0.26664 -1.72002,-0.39997 -2.76001,-0.4 -1.68,3e-5 -3.06667,0.36003 -4.16,1.08 -1.09333,0.72003 -1.64,1.90669 -1.64,3.56 0,1.14669 0.32,2.10669 0.96,2.88 0.66667,0.77335 1.49333,1.33335 2.48,1.68 0.98666,0.34668 2.05333,0.76002 3.2,1.24 1.14666,0.48002 2.21332,1.00002 3.2,1.56 0.98666,0.53335 1.79999,1.40001 2.44,2.6 0.66665,1.17334 0.99999,2.62668 1,4.36 -1e-5,2.74667 -0.76001,4.81334 -2.28,6.2 -1.52001,1.36 -3.57334,2.04 -6.16,2.04 -2.32,0 -4.26667,-0.49333 -5.84,-1.48 -1.57333,-1.01333 -2.36,-1.96 -2.36,-2.84"
           inkscape:connector-curvature="0" />
      </g>
    </g>
  </g>
</svg>
